<svg width="593" height="706" viewBox="0 0 593 706" fill="none" xmlns="http://www.w3.org/2000/svg">
<path d="M296 247.059C347.995 495.918 243.04 677.512 227.34 702.847C226.499 704.205 227.55 705.882 229.147 705.882H329.84C330.707 705.882 331.481 705.308 331.747 704.482C397.505 500.515 366.548 355.949 348.941 282.353M430.167 182.845C428.378 182.566 427.205 184.631 428.327 186.052C433.239 192.265 437.982 198.719 441.765 205.412C499.832 297.437 490.923 412.659 427.295 493.867C425.898 495.651 423.128 494.023 423.885 491.887C448.625 422.083 442.607 341.816 400.118 274.235C397.294 269.647 394.118 265.765 391.294 261.529C370.656 232.496 344.472 209.357 315.832 192.111C315.341 191.815 314.744 191.747 314.198 191.924C212.997 224.654 140 319.376 140 431.294C140 453.118 142.711 474.202 147.72 494.135C148.271 496.328 145.369 497.694 144.14 495.796C118.666 456.462 104 409.701 104 359.647C104 278.631 142.389 206.708 201.733 160.652C203.195 159.517 202.503 157.164 200.655 157.062C151.055 154.336 98.8275 165.841 53.1765 194.118C34.9054 206.2 18.6028 219.759 4.26864 234.794C2.70384 236.436 -0.00189628 234.695 0.963086 232.643C20.8918 190.262 52.6358 152.611 94.8235 126C146.324 93.7263 204.505 82.4942 260.917 89.7046C262.677 89.9295 263.867 87.9389 262.795 86.5255C248.875 68.1736 232.158 50.8078 212.353 35.2941C195.278 22.9297 176.976 12.5297 157.855 4.50376C155.762 3.62531 156.426 0.464616 158.689 0.635015C205.355 4.14841 251.513 20.3036 291.412 50.4706C313.336 66.8266 330.799 86.6139 344.817 107.464C345.19 108.019 345.814 108.355 346.482 108.343C349.593 108.285 352.478 108 355.647 108C464.188 108 556.757 176.781 592 273.305C592.78 275.441 589.911 276.931 588.504 275.144C549.964 226.167 494.03 192.787 430.167 182.845Z" fill="#FD2A7A"/>
</svg>
