<svg width="1165" height="149" viewBox="0 0 1165 149" fill="none" xmlns="http://www.w3.org/2000/svg">
<g filter="url(#filter0_d_115_6077)">
<path d="M63.626 56.3C69.2398 83.1684 60.5042 103.887 56.4804 111.566C55.7391 112.981 56.7642 114.8 58.3612 114.8H66.6719C67.5389 114.8 68.3112 114.234 68.5683 113.406C76.4449 88.0411 72.5858 70.0367 70.376 60.8M83.6788 48.7117C82.4072 48.3912 81.5658 49.8484 82.211 50.99C87.5897 59.514 88.4613 69.5991 85.4251 78.4482C84.6899 80.591 81.7626 79.3389 81.7874 77.0736C81.8524 71.1524 80.2826 65.1436 76.901 59.765C76.541 59.18 76.136 58.685 75.776 58.145C73.3065 54.6709 70.214 51.8586 66.8245 49.7082C66.3399 49.4008 65.7412 49.332 65.1997 49.5219C52.6857 53.9127 43.736 65.7972 43.736 79.79C43.736 81.5945 41.3373 82.4515 40.7687 80.739C39.7144 77.5641 39.146 74.1734 39.146 70.655C39.146 62.0073 42.5765 54.1721 48.1333 48.4044C49.4175 47.0715 48.644 44.7396 46.8 44.8996C41.9475 45.3205 37.0671 46.824 32.666 49.55C31.1737 50.5369 29.2018 48.9897 30.3377 47.6075C32.4616 45.0234 35.0174 42.7312 37.976 40.865C43.2836 37.5389 49.1477 35.9656 54.9994 35.9702C56.7734 35.9716 57.9174 33.9466 56.6882 32.6675C55.5551 31.4885 54.3146 30.3603 52.961 29.3C51.5365 28.2684 52.2731 25.8906 53.9419 26.4463C57.1376 27.5103 60.2127 29.0965 63.041 31.235C65.5658 33.1185 67.6265 35.359 69.3187 37.7338C69.7068 38.2784 70.3271 38.5938 70.9955 38.5737C71.0729 38.5714 71.1513 38.57 71.231 38.57C81.1757 38.57 90.0688 43.0985 95.9537 50.2138C97.4034 51.9666 94.7598 53.8205 92.8324 52.6127C90.0405 50.8632 86.9602 49.5387 83.6788 48.7117Z" fill="white"/>
<path fill-rule="evenodd" clip-rule="evenodd" d="M643.206 110.3V26H666.236V51.4573C667.695 50.6923 669.22 50.0807 670.811 49.6243C673.548 48.7665 676.272 48.33 678.976 48.33C684.245 48.33 688.842 49.4545 692.669 51.8133C696.521 54.1427 699.487 57.4 701.555 61.5356C703.624 65.6739 704.626 70.4271 704.626 75.74V110.3H681.486V76.95C681.486 75.2745 681.117 73.9186 680.451 72.809C679.749 71.6387 678.832 70.7548 677.682 70.1224C676.513 69.4795 675.269 69.16 673.916 69.16C672.564 69.16 671.319 69.4795 670.15 70.1224L670.116 70.1413L670.081 70.1589C668.963 70.7175 668.022 71.5566 667.253 72.7296C666.592 73.8442 666.236 75.1576 666.236 76.73V110.3H643.206Z" fill="white"/>
<path fill-rule="evenodd" clip-rule="evenodd" d="M638.653 49.65V69.49H628.073C625.798 69.49 623.918 69.9749 622.362 70.8724C620.772 71.79 619.571 73.0242 618.724 74.5982C617.867 76.1894 617.423 77.9859 617.423 80.03C617.423 82.0681 617.865 83.9091 618.732 85.5862C619.579 87.1533 620.777 88.3828 622.362 89.2976C623.918 90.1951 625.798 90.68 628.073 90.68H638.653V110.3H626.863C620.714 110.3 615.145 109.03 610.205 106.442C605.282 103.863 601.38 100.285 598.544 95.7147C595.688 91.1139 594.283 85.8647 594.283 80.03C594.283 74.198 595.686 68.951 598.539 64.3517C601.374 59.7095 605.276 56.0902 610.205 53.5083C615.145 50.9205 620.714 49.65 626.863 49.65H638.653Z" fill="white"/>
<path fill-rule="evenodd" clip-rule="evenodd" d="M539.264 52.5409C544.306 49.7078 550.189 48.33 556.844 48.33C563.352 48.33 569.061 49.6707 573.894 52.4418C578.751 55.1853 582.536 58.9671 585.211 63.7663C587.891 68.5746 589.204 74.0513 589.204 80.14V110.3H566.834V105.189C566.507 105.544 566.168 105.89 565.815 106.227C563.997 107.962 561.828 109.305 559.337 110.271C556.844 111.266 553.942 111.73 550.684 111.73C545.414 111.73 540.664 110.387 536.5 107.664C532.375 104.967 529.139 101.284 526.792 96.6665L526.782 96.6485L526.774 96.6303C524.498 91.9232 523.384 86.6323 523.384 80.8C523.384 74.6316 524.737 69.0475 527.486 64.0987L527.492 64.0882L527.498 64.0777C530.32 59.1382 534.253 55.2836 539.264 52.5409ZM561.337 89.8108C560.031 90.6555 558.416 91.12 556.404 91.12C554.488 91.12 552.859 90.6657 551.456 89.7999C550.091 88.84 549.003 87.5476 548.196 85.8724C547.39 84.1974 546.964 82.2635 546.964 80.03C546.964 77.7921 547.391 75.9579 548.169 74.4627L548.176 74.4486L548.183 74.4344C548.987 72.8259 550.075 71.5999 551.447 70.7052L551.455 70.6997L551.464 70.6941C552.87 69.7563 554.495 69.27 556.404 69.27C558.403 69.27 560.007 69.7638 561.312 70.6718L561.337 70.6889L561.362 70.7052C562.734 71.5999 563.821 72.8259 564.625 74.4344L564.633 74.4486L564.64 74.4627C565.417 75.9579 565.844 77.7921 565.844 80.03C565.844 82.2635 565.419 84.1974 564.612 85.8724C563.803 87.5539 562.709 88.8497 561.337 89.8108Z" fill="white"/>
<path fill-rule="evenodd" clip-rule="evenodd" d="M506.556 52.1108C502.166 49.5619 497.008 48.33 491.158 48.33C485.717 48.33 480.603 49.5377 475.842 51.957C471.031 54.4021 467.166 57.9972 464.266 62.7002C461.315 67.4856 459.898 73.2975 459.898 80.03C459.898 86.1569 461.376 91.5732 464.405 96.1961L464.412 96.2061L464.418 96.216C467.489 100.783 471.625 104.28 476.778 106.7L476.788 106.705C482.008 109.12 487.949 110.3 494.568 110.3H514.168V91.12H493.468C491.505 91.12 489.803 90.8834 488.342 90.4402C487.019 90.0174 486.011 89.4162 485.253 88.6756C485.067 88.4564 484.891 88.2215 484.727 87.97H519.177L519.591 86.5194C519.935 85.315 520.133 83.9238 520.213 82.3756C520.361 80.8088 520.438 79.4013 520.438 78.16C520.438 72.3149 519.245 67.1027 516.791 62.5853C514.414 58.0754 510.992 54.5713 506.556 52.1108ZM483.467 72.86H498.161C498.131 72.7437 498.097 72.6312 498.061 72.5225L498.053 72.5004L498.046 72.4782C497.803 71.6886 497.474 70.9729 497.061 70.3238C496.663 69.6993 496.187 69.1684 495.629 68.7217C495.129 68.3219 494.495 67.9935 493.689 67.763C492.857 67.5255 491.944 67.4 490.938 67.4C489.619 67.4 488.544 67.6196 487.67 68.0023C486.733 68.4122 485.977 68.9515 485.372 69.6115L485.343 69.6435L485.312 69.6742C484.708 70.2781 484.186 71.0435 483.763 72.0026C483.654 72.2776 483.555 72.5634 483.467 72.86Z" fill="white"/>
<path fill-rule="evenodd" clip-rule="evenodd" d="M406.642 107.635L406.631 107.628C401.692 104.885 397.831 101.065 395.08 96.1932L395.073 96.1813C392.314 91.2149 390.972 85.4421 390.972 78.93V26H414.112V52.6066C414.571 52.254 415.047 51.9241 415.54 51.6173C417.276 50.4654 419.204 49.6488 421.307 49.1594C423.379 48.6049 425.522 48.33 427.732 48.33C433.262 48.33 438.275 49.6191 442.717 52.2369C447.147 54.8473 450.591 58.4928 453.033 63.1313C455.563 67.7251 456.792 73.0498 456.792 79.04C456.792 83.7996 456.024 88.1911 454.458 92.1895C452.968 96.1059 450.768 99.5632 447.865 102.545C445.015 105.474 441.549 107.75 437.501 109.384L437.485 109.391L437.47 109.397C433.393 110.965 428.854 111.73 423.882 111.73C417.438 111.73 411.672 110.385 406.642 107.635ZM432.077 85.8998L432.09 85.8724C432.896 84.1974 433.322 82.2635 433.322 80.03C433.322 77.8782 432.9 76.0279 432.103 74.4344L432.089 74.4065L432.076 74.3781C431.357 72.8204 430.298 71.6171 428.872 70.726L428.83 70.6999L428.79 70.6718C427.484 69.7638 425.88 69.27 423.882 69.27C422.06 69.27 420.469 69.7489 419.051 70.6941L419.027 70.7104L419.002 70.726C417.563 71.6255 416.454 72.8475 415.661 74.4344C414.864 76.0279 414.442 77.8782 414.442 80.03C414.442 82.2635 414.867 84.1974 415.674 85.8724C416.473 87.5332 417.588 88.8243 419.026 89.7892C420.443 90.6685 422.044 91.12 423.882 91.12C425.902 91.12 427.521 90.6517 428.831 89.8004C430.263 88.8432 431.336 87.5672 432.064 85.9277L432.077 85.8998Z" fill="white"/>
<path fill-rule="evenodd" clip-rule="evenodd" d="M307.804 52.4195C312.809 49.6846 318.346 48.33 324.373 48.33C330.398 48.33 335.901 49.6836 340.838 52.4226C345.833 55.0799 349.798 58.8066 352.697 63.5833C355.694 68.3983 357.173 73.8638 357.173 79.92C357.173 86.0444 355.696 91.5478 352.697 96.367C349.797 101.144 345.834 104.905 340.843 107.635L340.833 107.64C335.892 110.307 330.353 111.62 324.263 111.62C318.242 111.62 312.709 110.305 307.705 107.646L307.688 107.637L307.672 107.628C302.756 104.897 298.802 101.14 295.836 96.3775C292.832 91.5558 291.353 86.0488 291.353 79.92C291.353 73.8593 292.834 68.3901 295.836 63.5725C298.808 58.801 302.807 55.0762 307.804 52.4195ZM315.699 74.2411C316.566 72.6398 317.719 71.4086 319.163 70.506C320.565 69.6297 322.241 69.16 324.263 69.16C326.285 69.16 327.961 69.6297 329.363 70.506L329.379 70.5156L329.394 70.525C330.902 71.4299 332.032 72.649 332.814 74.2144C333.607 75.7999 334.033 77.6846 334.033 79.92C334.033 82.0644 333.614 83.9589 332.808 85.6384C332.025 87.1976 330.898 88.4126 329.394 89.315L329.379 89.3244L329.363 89.334C327.961 90.2103 326.285 90.68 324.263 90.68C322.241 90.68 320.565 90.2103 319.163 89.334C317.723 88.4338 316.572 87.2067 315.706 85.6116C314.908 83.9388 314.493 82.053 314.493 79.92C314.493 77.6972 314.914 75.8211 315.699 74.2411Z" fill="white"/>
<path fill-rule="evenodd" clip-rule="evenodd" d="M288.78 49.65V69.49H278.2C275.925 69.49 274.045 69.9749 272.489 70.8724C270.899 71.79 269.698 73.0242 268.851 74.5982C267.994 76.1894 267.55 77.9859 267.55 80.03C267.55 82.0679 267.991 83.9087 268.858 85.5857C269.705 87.153 270.903 88.3827 272.489 89.2976C274.045 90.1951 275.925 90.68 278.2 90.68H288.78V110.3H276.99C270.841 110.3 265.272 109.03 260.332 106.442C255.409 103.863 251.507 100.285 248.67 95.7147C245.815 91.1139 244.41 85.8647 244.41 80.03C244.41 74.198 245.813 68.951 248.666 64.3517C251.501 59.7095 255.403 56.0902 260.332 53.5083C265.272 50.9205 270.841 49.65 276.99 49.65H288.78Z" fill="white"/>
<path fill-rule="evenodd" clip-rule="evenodd" d="M192.003 52.4195C197.008 49.6846 202.545 48.33 208.572 48.33C214.597 48.33 220.1 49.6836 225.037 52.4226C230.032 55.0798 233.997 58.8064 236.896 63.5828C239.893 68.3979 241.372 73.8636 241.372 79.92C241.372 86.0446 239.896 91.5482 236.896 96.3675C233.996 101.144 230.033 104.905 225.042 107.635L225.032 107.64C220.091 110.307 214.552 111.62 208.462 111.62C202.441 111.62 196.908 110.305 191.904 107.646L191.887 107.637L191.871 107.628C186.955 104.897 183.001 101.14 180.035 96.3775C177.031 91.5558 175.552 86.0488 175.552 79.92C175.552 73.8593 177.034 68.3901 180.035 63.5725C183.007 58.801 187.007 55.0762 192.003 52.4195ZM217.007 85.639C216.224 87.198 215.097 88.4127 213.593 89.315L213.578 89.3244L213.562 89.334C212.16 90.2103 210.484 90.68 208.462 90.68C206.44 90.68 204.764 90.2103 203.362 89.334C201.922 88.4338 200.772 87.2067 199.905 85.6116C199.107 83.9388 198.692 82.053 198.692 79.92C198.692 77.6973 199.114 75.8213 199.898 74.2415C200.765 72.64 201.918 71.4087 203.362 70.506C204.764 69.6297 206.44 69.16 208.462 69.16C210.484 69.16 212.16 69.6297 213.562 70.506L213.578 70.5156L213.593 70.525C215.102 71.4299 216.231 72.649 217.013 74.2144C217.806 75.7999 218.232 77.6846 218.232 79.92C218.232 82.0647 217.813 83.9595 217.007 85.639Z" fill="white"/>
<path fill-rule="evenodd" clip-rule="evenodd" d="M140.787 32.3961C146.255 30.3184 152.402 29.3 159.196 29.3H172.966V50.35H159.856C156.626 50.35 153.811 50.8645 151.376 51.8499C148.989 52.8459 146.998 54.2242 145.374 55.9788L145.361 55.9926L145.348 56.0062C143.721 57.6984 142.471 59.7267 141.607 62.1193L141.604 62.1278L141.601 62.1364C140.738 64.4594 140.296 67.0077 140.296 69.8C140.296 72.5884 140.737 75.1775 141.604 77.5823C142.465 79.8977 143.716 81.9377 145.361 83.7172C146.984 85.4021 148.979 86.75 151.376 87.7501C153.811 88.7355 156.626 89.25 159.856 89.25H172.966V110.3H159.185L159.174 110.3C152.389 110.224 146.255 109.206 140.798 107.208C135.364 105.218 130.689 102.407 126.806 98.7573C122.939 95.1223 119.956 90.8611 117.868 85.9878L117.86 85.9704L117.853 85.9528C115.84 80.9974 114.846 75.6055 114.846 69.8C114.846 63.995 115.84 58.6354 117.857 53.747L117.86 53.7398L117.863 53.7326C119.95 48.7854 122.934 44.4829 126.806 40.8427C130.686 37.1958 135.358 34.3859 140.787 32.3961Z" fill="white"/>
</g>
<g filter="url(#filter1_d_115_6077)">
<path fill-rule="evenodd" clip-rule="evenodd" d="M736.84 29.3V106.3H755.32V83.09H769.29L777.54 97.72C779.08 100.287 781.207 102.377 783.92 103.99C786.634 105.53 789.64 106.3 792.94 106.3H803.72V91.0101H796.9C796.094 91.0101 795.433 90.8634 794.92 90.5701C794.48 90.2767 794.077 89.8734 793.71 89.36L787.55 78.91C791.364 76.4901 794.444 73.3367 796.79 69.4501C799.137 65.4901 800.31 61.0534 800.31 56.1401C800.31 50.86 799.027 46.2034 796.46 42.17C793.967 38.1367 790.557 34.9834 786.23 32.71C781.977 30.4367 777.247 29.3 772.04 29.3H736.84ZM769.95 67.8H755.32V44.7001H769.95C772.077 44.7001 774.02 45.1767 775.78 46.1301C777.614 47.0101 779.08 48.3301 780.18 50.09C781.28 51.7767 781.83 53.8301 781.83 56.2501C781.83 58.67 781.28 60.7601 780.18 62.52C779.154 64.2067 777.723 65.5267 775.89 66.48C774.057 67.36 772.077 67.8 769.95 67.8Z" fill="#FD2A7A"/>
<path fill-rule="evenodd" clip-rule="evenodd" d="M822.207 102.78C827.047 105.127 832.657 106.3 839.037 106.3H855.757V92.22H838.487C836.14 92.22 834.013 91.9267 832.107 91.34C830.2 90.6801 828.624 89.6901 827.377 88.3701C826.13 87.05 825.287 85.4367 824.847 83.53H861.807C861.954 82.7967 862.064 81.8067 862.137 80.5601C862.232 79.7067 862.296 78.9299 862.33 78.2297L862.342 77.9457L862.35 77.6801C862.355 77.4975 862.357 77.3208 862.357 77.15C862.357 71.65 861.33 66.7734 859.277 62.52C857.224 58.1934 854.18 54.7834 850.147 52.29C846.187 49.7967 841.237 48.55 835.297 48.55C830.09 48.55 825.323 49.7601 820.997 52.1801C816.743 54.5267 813.334 57.9 810.767 62.3C808.2 66.7001 806.917 71.98 806.917 78.1401C806.917 83.7134 808.237 88.6267 810.877 92.8801C813.59 97.0601 817.367 100.36 822.207 102.78ZM845.857 72.86H824.407C824.627 71.54 824.957 70.2567 825.397 69.0101C825.91 67.6901 826.607 66.5534 827.487 65.6C828.367 64.5734 829.467 63.7667 830.787 63.1801C832.107 62.5934 833.61 62.3 835.297 62.3C836.617 62.3 837.79 62.4834 838.817 62.85C839.917 63.2167 840.87 63.73 841.677 64.3901C842.484 64.9767 843.18 65.71 843.767 66.59C844.427 67.3967 844.904 68.35 845.197 69.4501C845.49 70.55 845.71 71.6867 845.857 72.86Z" fill="#FD2A7A"/>
<path d="M872.401 106.3V92.7701H899.572C900.304 92.7701 900.965 92.6234 901.552 92.3301C902.138 91.9634 902.615 91.4867 902.981 90.9C903.348 90.3134 903.531 89.6901 903.531 89.03C903.531 88.2967 903.348 87.6367 902.981 87.05C902.615 86.4634 902.138 86.0234 901.552 85.73C900.965 85.3634 900.304 85.1801 899.572 85.1801H889.671C886.005 85.1801 882.668 84.5934 879.661 83.42C876.728 82.1734 874.381 80.2667 872.621 77.7001C870.935 75.0601 870.092 71.65 870.092 67.47C870.092 64.2434 870.862 61.3101 872.401 58.67C874.015 56.03 876.178 53.9034 878.891 52.29C881.678 50.6767 884.721 49.8701 888.021 49.8701H915.191V63.5101H890.661C889.635 63.5101 888.755 63.84 888.021 64.5001C887.362 65.16 887.031 65.9667 887.031 66.92C887.031 67.9467 887.362 68.8267 888.021 69.5601C888.755 70.22 889.635 70.55 890.661 70.55H900.342C904.448 70.55 907.968 71.1734 910.901 72.42C913.908 73.5934 916.218 75.5001 917.831 78.1401C919.518 80.78 920.362 84.1901 920.362 88.3701C920.362 91.67 919.518 94.6767 917.831 97.3901C916.218 100.103 914.018 102.267 911.231 103.88C908.518 105.493 905.438 106.3 901.991 106.3H872.401Z" fill="#FD2A7A"/>
<path fill-rule="evenodd" clip-rule="evenodd" d="M942.942 103.77C947.561 106.337 952.768 107.62 958.561 107.62C964.281 107.62 969.451 106.337 974.072 103.77C978.692 101.203 982.322 97.6834 984.961 93.2101C987.675 88.7367 989.031 83.7134 989.031 78.1401C989.031 72.4934 987.675 67.47 984.961 63.0701C982.322 58.5967 978.692 55.0767 974.072 52.5101C969.525 49.8701 964.355 48.55 958.561 48.55C952.768 48.55 947.561 49.8701 942.942 52.5101C938.322 55.0767 934.655 58.5967 931.942 63.0701C929.302 67.47 927.981 72.4934 927.981 78.1401C927.981 83.7134 929.302 88.7367 931.942 93.2101C934.655 97.6834 938.322 101.203 942.942 103.77ZM965.601 90.79C963.621 92.11 961.275 92.7701 958.561 92.7701C955.848 92.7701 953.465 92.11 951.411 90.79C949.431 89.47 947.891 87.71 946.791 85.5101C945.692 83.3101 945.141 80.8167 945.141 78.03C945.141 75.3167 945.692 72.86 946.791 70.66C947.891 68.4601 949.431 66.7001 951.411 65.3801C953.465 64.0601 955.848 63.4 958.561 63.4C961.275 63.4 963.621 64.0601 965.601 65.3801C967.581 66.7001 969.121 68.4601 970.221 70.66C971.322 72.86 971.871 75.3167 971.871 78.03C971.871 80.8167 971.322 83.3101 970.221 85.5101C969.121 87.71 967.581 89.47 965.601 90.79Z" fill="#FD2A7A"/>
<path d="M998.717 106.3V66.48C998.717 61.3467 1000.18 57.3134 1003.12 54.3801C1006.05 51.4467 1010.12 49.98 1015.33 49.98H1031.72V63.84H1019.51C1018.48 63.84 1017.6 64.2067 1016.87 64.9401C1016.13 65.6 1015.77 66.48 1015.77 67.5801V106.3H998.717Z" fill="#FD2A7A"/>
<path d="M1049.95 101.9C1052.88 104.833 1056.95 106.3 1062.16 106.3H1078.22V92.0001H1065.9C1065.02 92.0001 1064.25 91.7067 1063.59 91.1201C1063 90.4601 1062.71 89.6901 1062.71 88.8101V63.84H1078.22V49.8701H1062.71V36.1201H1045.55V49.8701H1036.31V63.84H1045.55V89.8C1045.55 94.86 1047.02 98.8934 1049.95 101.9Z" fill="#FD2A7A"/>
<path fill-rule="evenodd" clip-rule="evenodd" d="M736.84 29.3V106.3H755.32V83.09H769.29L777.54 97.72C779.08 100.287 781.207 102.377 783.92 103.99C786.634 105.53 789.64 106.3 792.94 106.3H803.72V91.0101H796.9C796.094 91.0101 795.433 90.8634 794.92 90.5701C794.48 90.2767 794.077 89.8734 793.71 89.36L787.55 78.91C791.364 76.4901 794.444 73.3367 796.79 69.4501C799.137 65.4901 800.31 61.0534 800.31 56.1401C800.31 50.86 799.027 46.2034 796.46 42.17C793.967 38.1367 790.557 34.9834 786.23 32.71C781.977 30.4367 777.247 29.3 772.04 29.3H736.84ZM769.95 67.8H755.32V44.7001H769.95C772.077 44.7001 774.02 45.1767 775.78 46.1301C777.614 47.0101 779.08 48.3301 780.18 50.09C781.28 51.7767 781.83 53.8301 781.83 56.2501C781.83 58.67 781.28 60.7601 780.18 62.52C779.154 64.2067 777.723 65.5267 775.89 66.48C774.057 67.36 772.077 67.8 769.95 67.8Z" stroke="white" stroke-width="2"/>
<path fill-rule="evenodd" clip-rule="evenodd" d="M822.207 102.78C827.047 105.127 832.657 106.3 839.037 106.3H855.757V92.22H838.487C836.14 92.22 834.013 91.9267 832.107 91.34C830.2 90.6801 828.624 89.6901 827.377 88.3701C826.13 87.05 825.287 85.4367 824.847 83.53H861.807C861.954 82.7967 862.064 81.8067 862.137 80.5601C862.232 79.7067 862.296 78.9299 862.33 78.2297L862.342 77.9457L862.35 77.6801C862.355 77.4975 862.357 77.3208 862.357 77.15C862.357 71.65 861.33 66.7734 859.277 62.52C857.224 58.1934 854.18 54.7834 850.147 52.29C846.187 49.7967 841.237 48.55 835.297 48.55C830.09 48.55 825.323 49.7601 820.997 52.1801C816.743 54.5267 813.334 57.9 810.767 62.3C808.2 66.7001 806.917 71.98 806.917 78.1401C806.917 83.7134 808.237 88.6267 810.877 92.8801C813.59 97.0601 817.367 100.36 822.207 102.78ZM845.857 72.86H824.407C824.627 71.54 824.957 70.2567 825.397 69.0101C825.91 67.6901 826.607 66.5534 827.487 65.6C828.367 64.5734 829.467 63.7667 830.787 63.1801C832.107 62.5934 833.61 62.3 835.297 62.3C836.617 62.3 837.79 62.4834 838.817 62.85C839.917 63.2167 840.87 63.73 841.677 64.3901C842.484 64.9767 843.18 65.71 843.767 66.59C844.427 67.3967 844.904 68.35 845.197 69.4501C845.49 70.55 845.71 71.6867 845.857 72.86Z" stroke="white" stroke-width="2"/>
<path d="M872.401 106.3V92.7701H899.572C900.304 92.7701 900.965 92.6234 901.552 92.3301C902.138 91.9634 902.615 91.4867 902.981 90.9C903.348 90.3134 903.531 89.6901 903.531 89.03C903.531 88.2967 903.348 87.6367 902.981 87.05C902.615 86.4634 902.138 86.0234 901.552 85.73C900.965 85.3634 900.304 85.1801 899.572 85.1801H889.671C886.005 85.1801 882.668 84.5934 879.661 83.42C876.728 82.1734 874.381 80.2667 872.621 77.7001C870.935 75.0601 870.092 71.65 870.092 67.47C870.092 64.2434 870.862 61.3101 872.401 58.67C874.015 56.03 876.178 53.9034 878.891 52.29C881.678 50.6767 884.721 49.8701 888.021 49.8701H915.191V63.5101H890.661C889.635 63.5101 888.755 63.84 888.021 64.5001C887.362 65.16 887.031 65.9667 887.031 66.92C887.031 67.9467 887.362 68.8267 888.021 69.5601C888.755 70.22 889.635 70.55 890.661 70.55H900.342C904.448 70.55 907.968 71.1734 910.901 72.42C913.908 73.5934 916.218 75.5001 917.831 78.1401C919.518 80.78 920.362 84.1901 920.362 88.3701C920.362 91.67 919.518 94.6767 917.831 97.3901C916.218 100.103 914.018 102.267 911.231 103.88C908.518 105.493 905.438 106.3 901.991 106.3H872.401Z" stroke="white" stroke-width="2"/>
<path fill-rule="evenodd" clip-rule="evenodd" d="M942.942 103.77C947.561 106.337 952.768 107.62 958.561 107.62C964.281 107.62 969.451 106.337 974.072 103.77C978.692 101.203 982.322 97.6834 984.961 93.2101C987.675 88.7367 989.031 83.7134 989.031 78.1401C989.031 72.4934 987.675 67.47 984.961 63.0701C982.322 58.5967 978.692 55.0767 974.072 52.5101C969.525 49.8701 964.355 48.55 958.561 48.55C952.768 48.55 947.561 49.8701 942.942 52.5101C938.322 55.0767 934.655 58.5967 931.942 63.0701C929.302 67.47 927.981 72.4934 927.981 78.1401C927.981 83.7134 929.302 88.7367 931.942 93.2101C934.655 97.6834 938.322 101.203 942.942 103.77ZM965.601 90.79C963.621 92.11 961.275 92.7701 958.561 92.7701C955.848 92.7701 953.465 92.11 951.411 90.79C949.431 89.47 947.891 87.71 946.791 85.5101C945.692 83.3101 945.141 80.8167 945.141 78.03C945.141 75.3167 945.692 72.86 946.791 70.66C947.891 68.4601 949.431 66.7001 951.411 65.3801C953.465 64.0601 955.848 63.4 958.561 63.4C961.275 63.4 963.621 64.0601 965.601 65.3801C967.581 66.7001 969.121 68.4601 970.221 70.66C971.322 72.86 971.871 75.3167 971.871 78.03C971.871 80.8167 971.322 83.3101 970.221 85.5101C969.121 87.71 967.581 89.47 965.601 90.79Z" stroke="white" stroke-width="2"/>
<path d="M998.717 106.3V66.48C998.717 61.3467 1000.18 57.3134 1003.12 54.3801C1006.05 51.4467 1010.12 49.98 1015.33 49.98H1031.72V63.84H1019.51C1018.48 63.84 1017.6 64.2067 1016.87 64.9401C1016.13 65.6 1015.77 66.48 1015.77 67.5801V106.3H998.717Z" stroke="white" stroke-width="2"/>
<path d="M1049.95 101.9C1052.88 104.833 1056.95 106.3 1062.16 106.3H1078.22V92.0001H1065.9C1065.02 92.0001 1064.25 91.7067 1063.59 91.1201C1063 90.4601 1062.71 89.6901 1062.71 88.8101V63.84H1078.22V49.8701H1062.71V36.1201H1045.55V49.8701H1036.31V63.84H1045.55V89.8C1045.55 94.86 1047.02 98.8934 1049.95 101.9Z" stroke="white" stroke-width="2"/>
</g>
<defs>
<filter id="filter0_d_115_6077" x="0" y="0" width="734.626" height="148.8" filterUnits="userSpaceOnUse" color-interpolation-filters="sRGB">
<feFlood flood-opacity="0" result="BackgroundImageFix"/>
<feColorMatrix in="SourceAlpha" type="matrix" values="0 0 0 0 0 0 0 0 0 0 0 0 0 0 0 0 0 0 127 0" result="hardAlpha"/>
<feOffset dy="4"/>
<feGaussianBlur stdDeviation="15"/>
<feComposite in2="hardAlpha" operator="out"/>
<feColorMatrix type="matrix" values="0 0 0 0 0 0 0 0 0 0 0 0 0 0 0 0 0 0 0.5 0"/>
<feBlend mode="normal" in2="BackgroundImageFix" result="effect1_dropShadow_115_6077"/>
<feBlend mode="normal" in="SourceGraphic" in2="effect1_dropShadow_115_6077" result="shape"/>
</filter>
<filter id="filter1_d_115_6077" x="720.84" y="13.3" width="373.381" height="110.32" filterUnits="userSpaceOnUse" color-interpolation-filters="sRGB">
<feFlood flood-opacity="0" result="BackgroundImageFix"/>
<feColorMatrix in="SourceAlpha" type="matrix" values="0 0 0 0 0 0 0 0 0 0 0 0 0 0 0 0 0 0 127 0" result="hardAlpha"/>
<feOffset/>
<feGaussianBlur stdDeviation="7.5"/>
<feComposite in2="hardAlpha" operator="out"/>
<feColorMatrix type="matrix" values="0 0 0 0 1 0 0 0 0 1 0 0 0 0 1 0 0 0 1 0"/>
<feBlend mode="normal" in2="BackgroundImageFix" result="effect1_dropShadow_115_6077"/>
<feBlend mode="normal" in="SourceGraphic" in2="effect1_dropShadow_115_6077" result="shape"/>
</filter>
</defs>
</svg>
