<svg width="40" height="40" viewBox="0 0 40 40" fill="none" xmlns="http://www.w3.org/2000/svg">
<path d="M26 14C28.07 16.04 28.85 18.89 28.36 21.55C28.77 22.27 29 23.11 29 24C29 25.3261 28.4732 26.5979 27.5355 27.5355C26.5979 28.4732 25.3261 29 24 29C23.11 29 22.27 28.77 21.55 28.36C18.89 28.85 16.04 28.07 14 26C11.93 23.96 11.15 21.11 11.64 18.45C11.23 17.73 11 16.89 11 16C11 14.6739 11.5268 13.4021 12.4645 12.4645C13.4021 11.5268 14.6739 11 16 11C16.89 11 17.73 11.23 18.45 11.64C21.11 11.15 23.96 11.93 26 14ZM20.04 25.16C22.91 25.16 24.34 23.78 24.34 21.92C24.34 20.73 23.78 19.46 21.61 18.97L19.62 18.53C18.86 18.36 18 18.13 18 17.42C18 16.7 18.6 16.2 19.7 16.2C21.93 16.2 21.72 17.73 22.83 17.73C23.41 17.73 23.91 17.39 23.91 16.8C23.91 15.43 21.72 14.4 19.86 14.4C17.85 14.4 15.7 15.26 15.7 17.54C15.7 18.64 16.09 19.81 18.25 20.35L20.94 21.03C21.75 21.23 21.95 21.68 21.95 22.1C21.95 22.78 21.27 23.45 20.04 23.45C17.63 23.45 17.96 21.6 16.67 21.6C16.09 21.6 15.67 22 15.67 22.57C15.67 23.68 17 25.16 20.04 25.16Z" fill="black"/>
</svg>
