<svg width="40" height="40" viewBox="0 0 40 40" fill="none" xmlns="http://www.w3.org/2000/svg">
<path fill-rule="evenodd" clip-rule="evenodd" d="M8 8.007C8 8.01273 8.19577 8.30004 8.48284 8.7156C8.54457 8.80497 9.23129 9.80399 10.5177 11.6758C11.0494 12.4495 11.6036 13.256 11.7493 13.4679C11.895 13.6798 12.3243 14.3046 12.7034 14.8563C13.0824 15.408 13.5193 16.0437 13.6743 16.2691C13.8293 16.4945 14.4101 17.3394 14.9649 18.1468C15.5197 18.9541 16.0928 19.7881 16.2385 20C16.4983 20.3779 16.8445 20.8819 17.0544 21.1881L17.1604 21.3426L17.1025 21.4083C17.0706 21.4444 16.8909 21.6529 16.7031 21.8716C16.2209 22.4329 15.8657 22.8462 15.6514 23.0948C15.55 23.2125 15.3463 23.4492 15.1988 23.6208C15.0512 23.7924 14.8475 24.0291 14.7459 24.1468C14.6444 24.2645 14.4217 24.5232 14.2511 24.7217C13.8815 25.1518 13.4755 25.6238 13.0938 26.0673C12.9404 26.2456 12.6633 26.5676 12.4781 26.7829C12.2928 26.9982 12.0346 27.2982 11.9042 27.4495C11.7737 27.6009 11.5227 27.8927 11.3463 28.0979C10.7943 28.7399 10.4102 29.1862 10.2568 29.3639C10.1754 29.4581 9.95505 29.7141 9.76698 29.9329C9.57894 30.1516 9.30948 30.4649 9.1682 30.6291C9.02691 30.7932 8.77095 31.0906 8.59939 31.29C8.42783 31.4893 8.22278 31.7274 8.14373 31.819C8.06467 31.9106 8 31.9888 8 31.9929C8 31.9969 8.46904 31.9987 9.04231 31.997L10.0846 31.9939L10.432 31.5902C10.623 31.3682 10.8907 31.0572 11.0268 30.8991C11.1629 30.741 11.4139 30.4492 11.5846 30.2508C11.7552 30.0523 11.9944 29.7743 12.116 29.633C12.2377 29.4917 12.491 29.1972 12.6791 28.9786C12.8671 28.7599 13.1276 28.4572 13.258 28.3058C13.3884 28.1544 13.6441 27.8572 13.8264 27.6453C14.3403 27.0477 14.9299 26.3625 15.2365 26.0061C15.3899 25.8278 15.6669 25.5058 15.852 25.2905C16.037 25.0752 16.2385 24.8413 16.2996 24.7706C16.4306 24.6194 16.7197 24.2834 17.2415 23.6758C17.7138 23.1261 17.9029 22.9066 18.0074 22.7872L18.0893 22.6937L18.2843 22.9768C18.4527 23.2213 19.1603 24.2507 19.4 24.5999C19.8734 25.2895 20.2356 25.8166 20.4587 26.1408C20.6067 26.3558 20.915 26.8043 21.1437 27.1375C21.3725 27.4706 21.6807 27.9193 21.8287 28.1344C21.9768 28.3496 22.6346 29.3072 23.2905 30.2624L24.4832 31.9992L27.9868 31.9966C30.9642 31.9943 31.4912 31.9913 31.496 31.9769C31.4991 31.9675 31.4964 31.9631 31.4901 31.9671C31.4837 31.971 31.3275 31.7543 31.1429 31.4854C30.8459 31.0528 28.3874 27.4758 27.6881 26.4587C27.5423 26.2468 27.2341 25.7982 27.0031 25.4618C26.7721 25.1254 26.5035 24.7346 26.4062 24.5933C26.2492 24.3652 25.4878 23.257 25.2086 22.8502C25.1509 22.7661 25.0071 22.5569 24.8891 22.3853C24.7711 22.2138 24.5554 21.9 24.4097 21.6881C24.2641 21.4761 23.6908 20.6422 23.1358 19.8349C21.9257 18.0746 22.0066 18.1929 21.9986 18.1719C21.9947 18.1617 22.084 18.0482 22.2223 17.8877C22.349 17.7407 22.5992 17.4499 22.7785 17.2414C22.9577 17.033 23.2324 16.7138 23.389 16.5321C23.5455 16.3505 23.8179 16.0339 23.9942 15.8287C24.4188 15.3345 24.5966 15.1278 24.8621 14.8196C25.3603 14.2413 25.6512 13.9032 26.4042 13.0275C26.5807 12.8223 26.8317 12.5306 26.9621 12.3792C27.0924 12.2278 27.3364 11.9443 27.5041 11.7492C27.6719 11.5541 27.8757 11.3174 27.9571 11.2232C28.0384 11.1291 28.3037 10.8208 28.5466 10.5382C29.1652 9.81853 29.5899 9.32522 29.8043 9.07716C29.9052 8.96039 30.0235 8.82241 30.0673 8.77054C30.111 8.71867 30.2459 8.56179 30.367 8.4219C30.4881 8.28202 30.6191 8.12987 30.6581 8.08378L30.729 8H29.6839H28.6388L28.5361 8.11927C28.4796 8.18487 28.2797 8.41743 28.0919 8.63609C27.904 8.85474 27.6838 9.1107 27.6025 9.20489C27.5212 9.29908 27.334 9.51651 27.1865 9.68807C27.039 9.85963 26.8353 10.0963 26.7337 10.2141C26.6322 10.3318 26.4002 10.6015 26.2181 10.8135C25.7015 11.4148 25.5796 11.5565 25.303 11.8777C24.8812 12.3674 24.5568 12.7446 23.7929 13.633C23.6483 13.8012 23.4635 14.0159 23.3823 14.1101C23.1994 14.322 22.7949 14.7923 22.4405 15.2049C22.1359 15.5596 22.0273 15.6854 22.0181 15.6942C22.0145 15.6976 21.8155 15.9287 21.5758 16.208C21.3361 16.4872 21.1214 16.737 21.0987 16.763L21.0573 16.8105L20.5873 16.127C20.3288 15.751 20.0778 15.3856 20.0294 15.315C19.9811 15.2443 19.6634 14.782 19.3234 14.2875C18.6173 13.2604 18.44 13.0024 17.4821 11.6086C17.1006 11.0535 16.6486 10.3957 16.4776 10.1468C16.3066 9.89786 16.1439 9.66116 16.1159 9.6208C16.0368 9.50658 15.221 8.31758 15.1066 8.14985L15.0044 8H11.5022C9.57599 8 8 8.00314 8 8.007ZM10.8453 9.58104C10.8546 9.59704 11.0106 9.82127 11.4051 10.3853C11.5345 10.5703 11.8635 11.041 12.1363 11.4312C12.7254 12.2741 13.8832 13.9299 14.7278 15.1376C15.8144 16.6914 16.73 18.0006 17.1315 18.5749C17.3479 18.8844 17.8194 19.5587 18.1793 20.0734C18.5391 20.5881 19.0144 21.2679 19.2354 21.5841C19.6077 22.1167 20.0381 22.7322 21.5107 24.8379C21.8213 25.282 22.3331 26.0141 22.6482 26.4648C23.4069 27.5502 24.4477 29.0386 25.0092 29.841L25.4628 30.4893L27.0433 30.4924C27.9126 30.4941 28.6239 30.4929 28.6239 30.4897C28.6239 30.4865 28.4514 30.2373 28.2407 29.9361C28.0299 29.6349 27.6015 29.0223 27.2887 28.5749C26.9758 28.1275 26.4447 27.3679 26.1083 26.8869C25.7719 26.4058 25.2985 25.7287 25.0562 25.3823C24.222 24.189 23.4677 23.1103 22.6869 21.9939C22.2564 21.3783 21.7447 20.6462 21.5498 20.367C21.3549 20.0878 21.1584 19.807 21.1131 19.7431C21.0679 19.6792 20.9733 19.5443 20.9031 19.4434C20.8328 19.3425 20.756 19.2324 20.7323 19.1988C20.7087 19.1651 20.5471 18.9339 20.3731 18.685C20.1991 18.4361 19.7623 17.8113 19.4024 17.2966C18.4594 15.9479 17.8665 15.1 17.1572 14.0856C16.8138 13.5945 16.1997 12.7162 15.7924 12.1339C15.3852 11.5516 14.8153 10.7359 14.526 10.3211L14 9.56703L12.4182 9.5664C11.1561 9.56588 10.8383 9.56884 10.8453 9.58104Z" fill="#111111"/>
</svg>
